<mxfile host="app.diagrams.net" agent="Mozilla/5.0 (Windows NT 10.0; Win64; x64) AppleWebKit/537.36 (KHTML, like Gecko) Chrome/132.0.0.0 Safari/537.36" version="26.0.11">
  <diagram id="R2lEEEUBdFMjLlhIrx00" name="Page-1">
    <mxGraphModel dx="2163" dy="1916" grid="1" gridSize="10" guides="1" tooltips="1" connect="1" arrows="1" fold="1" page="1" pageScale="1" pageWidth="850" pageHeight="1100" math="0" shadow="0" extFonts="Permanent Marker^https://fonts.googleapis.com/css?family=Permanent+Marker">
      <root>
        <mxCell id="0" />
        <mxCell id="1" parent="0" />
        <mxCell id="NP60Pz9xRDAueaMonVoZ-1" value="DEPARTMENTS" style="whiteSpace=wrap;html=1;align=center;" vertex="1" parent="1">
          <mxGeometry x="468.75" y="160" width="145" height="40" as="geometry" />
        </mxCell>
        <mxCell id="NP60Pz9xRDAueaMonVoZ-3" value="Dep_NAME" style="ellipse;whiteSpace=wrap;html=1;align=center;" vertex="1" parent="1">
          <mxGeometry x="698.75" y="180" width="100" height="40" as="geometry" />
        </mxCell>
        <mxCell id="NP60Pz9xRDAueaMonVoZ-4" value="Dep_ID" style="ellipse;whiteSpace=wrap;html=1;align=center;" vertex="1" parent="1">
          <mxGeometry x="698.75" y="110" width="100" height="40" as="geometry" />
        </mxCell>
        <mxCell id="NP60Pz9xRDAueaMonVoZ-5" value="EMPLOYEE" style="Entity;whiteSpace=wrap;html=1;align=center;" vertex="1" parent="1">
          <mxGeometry x="-70" y="170" width="140" height="40" as="geometry" />
        </mxCell>
        <mxCell id="NP60Pz9xRDAueaMonVoZ-13" value="" style="endArrow=none;html=1;rounded=0;fontFamily=Helvetica;fontSize=12;fontColor=default;exitX=1;exitY=0.75;exitDx=0;exitDy=0;entryX=0;entryY=0.5;entryDx=0;entryDy=0;" edge="1" parent="1" source="NP60Pz9xRDAueaMonVoZ-1" target="NP60Pz9xRDAueaMonVoZ-3">
          <mxGeometry width="50" height="50" relative="1" as="geometry">
            <mxPoint x="403.75" y="190" as="sourcePoint" />
            <mxPoint x="428.75" y="150" as="targetPoint" />
          </mxGeometry>
        </mxCell>
        <mxCell id="NP60Pz9xRDAueaMonVoZ-14" value="" style="endArrow=none;html=1;rounded=0;fontFamily=Helvetica;fontSize=12;fontColor=default;entryX=0;entryY=0.5;entryDx=0;entryDy=0;exitX=1;exitY=0.25;exitDx=0;exitDy=0;" edge="1" parent="1" source="NP60Pz9xRDAueaMonVoZ-1" target="NP60Pz9xRDAueaMonVoZ-4">
          <mxGeometry relative="1" as="geometry">
            <mxPoint x="548.75" y="170" as="sourcePoint" />
            <mxPoint x="648.75" y="160" as="targetPoint" />
          </mxGeometry>
        </mxCell>
        <mxCell id="NP60Pz9xRDAueaMonVoZ-15" value="Control" style="shape=rhombus;perimeter=rhombusPerimeter;whiteSpace=wrap;html=1;align=center;strokeColor=default;verticalAlign=middle;fontFamily=Helvetica;fontSize=12;fontColor=default;fillColor=default;" vertex="1" parent="1">
          <mxGeometry x="488.75" y="250" width="87.5" height="50" as="geometry" />
        </mxCell>
        <mxCell id="NP60Pz9xRDAueaMonVoZ-26" value="Project" style="whiteSpace=wrap;html=1;align=center;" vertex="1" parent="1">
          <mxGeometry x="460" y="350" width="145" height="40" as="geometry" />
        </mxCell>
        <mxCell id="NP60Pz9xRDAueaMonVoZ-28" value="Pro_ID" style="ellipse;whiteSpace=wrap;html=1;align=center;" vertex="1" parent="1">
          <mxGeometry x="698.75" y="290" width="100" height="40" as="geometry" />
        </mxCell>
        <mxCell id="NP60Pz9xRDAueaMonVoZ-29" value="Pro_NAME" style="ellipse;whiteSpace=wrap;html=1;align=center;" vertex="1" parent="1">
          <mxGeometry x="698.75" y="350" width="100" height="40" as="geometry" />
        </mxCell>
        <mxCell id="NP60Pz9xRDAueaMonVoZ-32" value="Location" style="ellipse;whiteSpace=wrap;html=1;align=center;" vertex="1" parent="1">
          <mxGeometry x="698.75" y="410" width="100" height="40" as="geometry" />
        </mxCell>
        <mxCell id="NP60Pz9xRDAueaMonVoZ-33" value="" style="endArrow=none;html=1;rounded=0;fontFamily=Helvetica;fontSize=12;fontColor=default;exitX=1;exitY=0;exitDx=0;exitDy=0;entryX=0;entryY=0.5;entryDx=0;entryDy=0;" edge="1" parent="1" source="NP60Pz9xRDAueaMonVoZ-26" target="NP60Pz9xRDAueaMonVoZ-28">
          <mxGeometry relative="1" as="geometry">
            <mxPoint x="448.75" y="200" as="sourcePoint" />
            <mxPoint x="578.75" y="200" as="targetPoint" />
          </mxGeometry>
        </mxCell>
        <mxCell id="NP60Pz9xRDAueaMonVoZ-34" value="" style="endArrow=none;html=1;rounded=0;fontFamily=Helvetica;fontSize=12;fontColor=default;exitX=1;exitY=0.5;exitDx=0;exitDy=0;" edge="1" parent="1" source="NP60Pz9xRDAueaMonVoZ-26" target="NP60Pz9xRDAueaMonVoZ-29">
          <mxGeometry relative="1" as="geometry">
            <mxPoint x="633.75" y="340" as="sourcePoint" />
            <mxPoint x="728.75" y="320" as="targetPoint" />
          </mxGeometry>
        </mxCell>
        <mxCell id="NP60Pz9xRDAueaMonVoZ-35" value="" style="endArrow=none;html=1;rounded=0;fontFamily=Helvetica;fontSize=12;fontColor=default;exitX=1;exitY=1;exitDx=0;exitDy=0;entryX=0;entryY=0;entryDx=0;entryDy=0;" edge="1" parent="1" source="NP60Pz9xRDAueaMonVoZ-26" target="NP60Pz9xRDAueaMonVoZ-32">
          <mxGeometry relative="1" as="geometry">
            <mxPoint x="643.75" y="350" as="sourcePoint" />
            <mxPoint x="738.75" y="330" as="targetPoint" />
          </mxGeometry>
        </mxCell>
        <mxCell id="NP60Pz9xRDAueaMonVoZ-36" value="" style="endArrow=none;html=1;rounded=0;fontFamily=Helvetica;fontSize=12;fontColor=default;exitX=0.441;exitY=1.138;exitDx=0;exitDy=0;entryX=0.5;entryY=0;entryDx=0;entryDy=0;exitPerimeter=0;" edge="1" parent="1" source="NP60Pz9xRDAueaMonVoZ-1" target="NP60Pz9xRDAueaMonVoZ-15">
          <mxGeometry relative="1" as="geometry">
            <mxPoint x="633.75" y="340" as="sourcePoint" />
            <mxPoint x="728.75" y="320" as="targetPoint" />
          </mxGeometry>
        </mxCell>
        <mxCell id="NP60Pz9xRDAueaMonVoZ-37" value="" style="endArrow=none;html=1;rounded=0;fontFamily=Helvetica;fontSize=12;fontColor=default;exitX=0.5;exitY=1;exitDx=0;exitDy=0;entryX=0.5;entryY=0;entryDx=0;entryDy=0;" edge="1" parent="1" source="NP60Pz9xRDAueaMonVoZ-15" target="NP60Pz9xRDAueaMonVoZ-26">
          <mxGeometry relative="1" as="geometry">
            <mxPoint x="643.75" y="350" as="sourcePoint" />
            <mxPoint x="738.75" y="330" as="targetPoint" />
          </mxGeometry>
        </mxCell>
        <mxCell id="NP60Pz9xRDAueaMonVoZ-38" value="Emp_ID" style="ellipse;whiteSpace=wrap;html=1;align=center;" vertex="1" parent="1">
          <mxGeometry x="-120" y="50" width="100" height="40" as="geometry" />
        </mxCell>
        <mxCell id="NP60Pz9xRDAueaMonVoZ-39" value="Birthday" style="ellipse;whiteSpace=wrap;html=1;align=center;" vertex="1" parent="1">
          <mxGeometry x="-170" y="290" width="100" height="40" as="geometry" />
        </mxCell>
        <mxCell id="NP60Pz9xRDAueaMonVoZ-40" value="Sex" style="ellipse;whiteSpace=wrap;html=1;align=center;" vertex="1" parent="1">
          <mxGeometry x="-220" y="170" width="100" height="40" as="geometry" />
        </mxCell>
        <mxCell id="NP60Pz9xRDAueaMonVoZ-41" value="Emp_Name" style="ellipse;whiteSpace=wrap;html=1;align=center;" vertex="1" parent="1">
          <mxGeometry x="-190" y="100" width="100" height="40" as="geometry" />
        </mxCell>
        <mxCell id="NP60Pz9xRDAueaMonVoZ-42" value="Salary" style="ellipse;whiteSpace=wrap;html=1;align=center;" vertex="1" parent="1">
          <mxGeometry x="-200" y="230" width="100" height="40" as="geometry" />
        </mxCell>
        <mxCell id="NP60Pz9xRDAueaMonVoZ-43" value="" style="endArrow=none;html=1;rounded=0;fontFamily=Helvetica;fontSize=12;fontColor=default;exitX=0.171;exitY=0.013;exitDx=0;exitDy=0;exitPerimeter=0;entryX=0.64;entryY=1.013;entryDx=0;entryDy=0;entryPerimeter=0;" edge="1" parent="1" source="NP60Pz9xRDAueaMonVoZ-5" target="NP60Pz9xRDAueaMonVoZ-38">
          <mxGeometry relative="1" as="geometry">
            <mxPoint x="-40" y="130" as="sourcePoint" />
            <mxPoint x="120" y="130" as="targetPoint" />
          </mxGeometry>
        </mxCell>
        <mxCell id="NP60Pz9xRDAueaMonVoZ-44" value="" style="endArrow=none;html=1;rounded=0;fontFamily=Helvetica;fontSize=12;fontColor=default;exitX=0;exitY=0;exitDx=0;exitDy=0;entryX=0.74;entryY=1.013;entryDx=0;entryDy=0;entryPerimeter=0;" edge="1" parent="1" source="NP60Pz9xRDAueaMonVoZ-5" target="NP60Pz9xRDAueaMonVoZ-41">
          <mxGeometry relative="1" as="geometry">
            <mxPoint x="-30" y="140" as="sourcePoint" />
            <mxPoint x="130" y="140" as="targetPoint" />
          </mxGeometry>
        </mxCell>
        <mxCell id="NP60Pz9xRDAueaMonVoZ-45" value="" style="endArrow=none;html=1;rounded=0;fontFamily=Helvetica;fontSize=12;fontColor=default;exitX=0;exitY=0.5;exitDx=0;exitDy=0;entryX=1;entryY=0.5;entryDx=0;entryDy=0;" edge="1" parent="1" source="NP60Pz9xRDAueaMonVoZ-5" target="NP60Pz9xRDAueaMonVoZ-40">
          <mxGeometry relative="1" as="geometry">
            <mxPoint x="-20" y="130" as="sourcePoint" />
            <mxPoint x="140" y="130" as="targetPoint" />
          </mxGeometry>
        </mxCell>
        <mxCell id="NP60Pz9xRDAueaMonVoZ-48" value="" style="endArrow=none;html=1;rounded=0;fontFamily=Helvetica;fontSize=12;fontColor=default;entryX=0.25;entryY=1;entryDx=0;entryDy=0;exitX=1;exitY=0;exitDx=0;exitDy=0;" edge="1" parent="1" source="NP60Pz9xRDAueaMonVoZ-42" target="NP60Pz9xRDAueaMonVoZ-5">
          <mxGeometry relative="1" as="geometry">
            <mxPoint x="-90" y="249.38" as="sourcePoint" />
            <mxPoint x="70" y="249.38" as="targetPoint" />
          </mxGeometry>
        </mxCell>
        <mxCell id="NP60Pz9xRDAueaMonVoZ-49" value="" style="endArrow=none;html=1;rounded=0;fontFamily=Helvetica;fontSize=12;fontColor=default;entryX=0.429;entryY=1.013;entryDx=0;entryDy=0;entryPerimeter=0;exitX=1;exitY=0;exitDx=0;exitDy=0;" edge="1" parent="1" source="NP60Pz9xRDAueaMonVoZ-39" target="NP60Pz9xRDAueaMonVoZ-5">
          <mxGeometry relative="1" as="geometry">
            <mxPoint x="-60" y="290" as="sourcePoint" />
            <mxPoint x="-5" y="250.62" as="targetPoint" />
          </mxGeometry>
        </mxCell>
        <mxCell id="NP60Pz9xRDAueaMonVoZ-50" value="Work on" style="shape=rhombus;perimeter=rhombusPerimeter;whiteSpace=wrap;html=1;align=center;strokeColor=default;verticalAlign=middle;fontFamily=Helvetica;fontSize=12;fontColor=default;fillColor=default;" vertex="1" parent="1">
          <mxGeometry x="150" y="280" width="120" height="60" as="geometry" />
        </mxCell>
        <mxCell id="NP60Pz9xRDAueaMonVoZ-54" value="" style="endArrow=none;html=1;rounded=0;fontFamily=Helvetica;fontSize=12;fontColor=default;entryX=0;entryY=0;entryDx=0;entryDy=0;exitX=1;exitY=0.75;exitDx=0;exitDy=0;" edge="1" parent="1" source="NP60Pz9xRDAueaMonVoZ-5" target="NP60Pz9xRDAueaMonVoZ-50">
          <mxGeometry relative="1" as="geometry">
            <mxPoint x="60" y="210" as="sourcePoint" />
            <mxPoint x="220" y="210" as="targetPoint" />
          </mxGeometry>
        </mxCell>
        <mxCell id="NP60Pz9xRDAueaMonVoZ-56" value="" style="endArrow=none;html=1;rounded=0;fontFamily=Helvetica;fontSize=12;fontColor=default;entryX=0;entryY=0;entryDx=0;entryDy=0;exitX=1;exitY=1;exitDx=0;exitDy=0;" edge="1" parent="1" source="NP60Pz9xRDAueaMonVoZ-50" target="NP60Pz9xRDAueaMonVoZ-26">
          <mxGeometry relative="1" as="geometry">
            <mxPoint x="241.25" y="315" as="sourcePoint" />
            <mxPoint x="361.25" y="390" as="targetPoint" />
          </mxGeometry>
        </mxCell>
        <mxCell id="NP60Pz9xRDAueaMonVoZ-59" value="Hour" style="ellipse;whiteSpace=wrap;html=1;align=center;strokeColor=default;verticalAlign=middle;fontFamily=Helvetica;fontSize=12;fontColor=default;fillColor=default;" vertex="1" parent="1">
          <mxGeometry x="270" y="230" width="100" height="40" as="geometry" />
        </mxCell>
        <mxCell id="NP60Pz9xRDAueaMonVoZ-60" value="" style="endArrow=none;html=1;rounded=0;fontFamily=Helvetica;fontSize=12;fontColor=default;entryX=0.35;entryY=0.963;entryDx=0;entryDy=0;exitX=1;exitY=0;exitDx=0;exitDy=0;entryPerimeter=0;" edge="1" parent="1" source="NP60Pz9xRDAueaMonVoZ-50" target="NP60Pz9xRDAueaMonVoZ-59">
          <mxGeometry relative="1" as="geometry">
            <mxPoint x="250" y="325" as="sourcePoint" />
            <mxPoint x="371" y="400" as="targetPoint" />
          </mxGeometry>
        </mxCell>
        <mxCell id="NP60Pz9xRDAueaMonVoZ-61" value="Work for" style="shape=rhombus;perimeter=rhombusPerimeter;whiteSpace=wrap;html=1;align=center;strokeColor=default;verticalAlign=middle;fontFamily=Helvetica;fontSize=12;fontColor=default;fillColor=default;" vertex="1" parent="1">
          <mxGeometry x="220" y="130" width="120" height="60" as="geometry" />
        </mxCell>
        <mxCell id="NP60Pz9xRDAueaMonVoZ-62" value="" style="endArrow=none;html=1;rounded=0;fontFamily=Helvetica;fontSize=12;fontColor=default;entryX=0;entryY=0.5;entryDx=0;entryDy=0;exitX=1;exitY=0.25;exitDx=0;exitDy=0;" edge="1" parent="1" source="NP60Pz9xRDAueaMonVoZ-5" target="NP60Pz9xRDAueaMonVoZ-61">
          <mxGeometry relative="1" as="geometry">
            <mxPoint x="80" y="200" as="sourcePoint" />
            <mxPoint x="190" y="305" as="targetPoint" />
          </mxGeometry>
        </mxCell>
        <mxCell id="NP60Pz9xRDAueaMonVoZ-63" value="" style="endArrow=none;html=1;rounded=0;fontFamily=Helvetica;fontSize=12;fontColor=default;entryX=0;entryY=0.5;entryDx=0;entryDy=0;exitX=1;exitY=0.5;exitDx=0;exitDy=0;" edge="1" parent="1" source="NP60Pz9xRDAueaMonVoZ-61" target="NP60Pz9xRDAueaMonVoZ-1">
          <mxGeometry relative="1" as="geometry">
            <mxPoint x="350" y="140" as="sourcePoint" />
            <mxPoint x="500" y="60" as="targetPoint" />
          </mxGeometry>
        </mxCell>
        <mxCell id="NP60Pz9xRDAueaMonVoZ-64" value="Dependent" style="shape=ext;margin=3;double=1;whiteSpace=wrap;html=1;align=center;strokeColor=default;verticalAlign=middle;fontFamily=Helvetica;fontSize=12;fontColor=default;fillColor=default;" vertex="1" parent="1">
          <mxGeometry x="160" y="430" width="100" height="40" as="geometry" />
        </mxCell>
        <mxCell id="NP60Pz9xRDAueaMonVoZ-65" value="Birthday" style="ellipse;whiteSpace=wrap;html=1;align=center;strokeColor=default;verticalAlign=middle;fontFamily=Helvetica;fontSize=12;fontColor=default;fillColor=default;" vertex="1" parent="1">
          <mxGeometry x="230" y="570" width="100" height="40" as="geometry" />
        </mxCell>
        <mxCell id="NP60Pz9xRDAueaMonVoZ-66" value="Relationship Name" style="ellipse;whiteSpace=wrap;html=1;align=center;strokeColor=default;verticalAlign=middle;fontFamily=Helvetica;fontSize=12;fontColor=default;fillColor=default;" vertex="1" parent="1">
          <mxGeometry x="240" y="350" width="100" height="40" as="geometry" />
        </mxCell>
        <mxCell id="NP60Pz9xRDAueaMonVoZ-67" value="Sex" style="ellipse;whiteSpace=wrap;html=1;align=center;strokeColor=default;verticalAlign=middle;fontFamily=Helvetica;fontSize=12;fontColor=default;fillColor=default;" vertex="1" parent="1">
          <mxGeometry x="270" y="500" width="100" height="40" as="geometry" />
        </mxCell>
        <mxCell id="NP60Pz9xRDAueaMonVoZ-68" value="Depd_Name" style="ellipse;whiteSpace=wrap;html=1;align=center;strokeColor=default;verticalAlign=middle;fontFamily=Helvetica;fontSize=12;fontColor=default;fillColor=default;" vertex="1" parent="1">
          <mxGeometry x="300" y="420" width="100" height="40" as="geometry" />
        </mxCell>
        <mxCell id="NP60Pz9xRDAueaMonVoZ-69" value="" style="endArrow=none;html=1;rounded=0;fontFamily=Helvetica;fontSize=12;fontColor=default;entryX=0.4;entryY=1.037;entryDx=0;entryDy=0;exitX=0.89;exitY=0.013;exitDx=0;exitDy=0;entryPerimeter=0;exitPerimeter=0;" edge="1" parent="1" source="NP60Pz9xRDAueaMonVoZ-64" target="NP60Pz9xRDAueaMonVoZ-66">
          <mxGeometry relative="1" as="geometry">
            <mxPoint x="220" y="420" as="sourcePoint" />
            <mxPoint x="285" y="394" as="targetPoint" />
          </mxGeometry>
        </mxCell>
        <mxCell id="NP60Pz9xRDAueaMonVoZ-70" value="" style="endArrow=none;html=1;rounded=0;fontFamily=Helvetica;fontSize=12;fontColor=default;entryX=0;entryY=0;entryDx=0;entryDy=0;exitX=1;exitY=0.25;exitDx=0;exitDy=0;" edge="1" parent="1" source="NP60Pz9xRDAueaMonVoZ-64" target="NP60Pz9xRDAueaMonVoZ-68">
          <mxGeometry relative="1" as="geometry">
            <mxPoint x="259" y="441" as="sourcePoint" />
            <mxPoint x="290" y="401" as="targetPoint" />
          </mxGeometry>
        </mxCell>
        <mxCell id="NP60Pz9xRDAueaMonVoZ-71" value="" style="endArrow=none;html=1;rounded=0;fontFamily=Helvetica;fontSize=12;fontColor=default;entryX=0.26;entryY=-0.012;entryDx=0;entryDy=0;exitX=1;exitY=0.75;exitDx=0;exitDy=0;entryPerimeter=0;" edge="1" parent="1" source="NP60Pz9xRDAueaMonVoZ-64" target="NP60Pz9xRDAueaMonVoZ-67">
          <mxGeometry relative="1" as="geometry">
            <mxPoint x="270" y="450" as="sourcePoint" />
            <mxPoint x="325" y="436" as="targetPoint" />
          </mxGeometry>
        </mxCell>
        <mxCell id="NP60Pz9xRDAueaMonVoZ-72" value="" style="endArrow=none;html=1;rounded=0;fontFamily=Helvetica;fontSize=12;fontColor=default;entryX=0.33;entryY=-0.037;entryDx=0;entryDy=0;exitX=0.75;exitY=1;exitDx=0;exitDy=0;entryPerimeter=0;" edge="1" parent="1" source="NP60Pz9xRDAueaMonVoZ-64" target="NP60Pz9xRDAueaMonVoZ-65">
          <mxGeometry relative="1" as="geometry">
            <mxPoint x="270" y="470" as="sourcePoint" />
            <mxPoint x="306" y="510" as="targetPoint" />
          </mxGeometry>
        </mxCell>
        <mxCell id="NP60Pz9xRDAueaMonVoZ-73" value="" style="endArrow=none;html=1;rounded=0;fontFamily=Helvetica;fontSize=12;fontColor=default;exitX=0.629;exitY=0.037;exitDx=0;exitDy=0;exitPerimeter=0;" edge="1" parent="1" source="NP60Pz9xRDAueaMonVoZ-5">
          <mxGeometry relative="1" as="geometry">
            <mxPoint x="100" y="240" as="sourcePoint" />
            <mxPoint x="40" y="-40" as="targetPoint" />
            <Array as="points">
              <mxPoint x="-310" y="230" />
              <mxPoint x="-280" y="-30" />
              <mxPoint x="-90" y="-30" />
            </Array>
          </mxGeometry>
        </mxCell>
      </root>
    </mxGraphModel>
  </diagram>
</mxfile>
